PathFileType	4	(X/Y/Z)	E:\Qualisys_Data\Carbon_Farble_Plate\Data\Amateur_Runner\S2\T2\S2T2V13_c3d.trc
DataRate	CameraRate	NumFrames	NumMarkers	Units	OrigDataRate	OrigDataStartFrame	OrigNumFrames
200.000000	200.000000	4	39	mm	200.000000	162	325
Frame#	Time	LSHO			RSHO			LICST			RICST			LASIS			LHEEL			RASIS			LTROC			RTROC			SACR			LTH1			LSK4			LTH2			LTH3			RHM5			LSK2			LTH4			RTH1			LTOE			RTH2			RTH3			RTH4			LLEP			RLEP			LSK1			LSK3			RSK1			LHM5			RSK2			LFT1			RSK3			RSK4			LLME			RLME			RTOE			RHEEL			RFT1			RFT2			LFT2			
		X1	Y1	Z1	X2	Y2	Z2	X3	Y3	Z3	X4	Y4	Z4	X5	Y5	Z5	X6	Y6	Z6	X7	Y7	Z7	X8	Y8	Z8	X9	Y9	Z9	X10	Y10	Z10	X11	Y11	Z11	X12	Y12	Z12	X13	Y13	Z13	X14	Y14	Z14	X15	Y15	Z15	X16	Y16	Z16	X17	Y17	Z17	X18	Y18	Z18	X19	Y19	Z19	X20	Y20	Z20	X21	Y21	Z21	X22	Y22	Z22	X23	Y23	Z23	X24	Y24	Z24	X25	Y25	Z25	X26	Y26	Z26	X27	Y27	Z27	X28	Y28	Z28	X29	Y29	Z29	X30	Y30	Z30	X31	Y31	Z31	X32	Y32	Z32	X33	Y33	Z33	X34	Y34	Z34	X35	Y35	Z35	X36	Y36	Z36	X37	Y37	Z37	X38	Y38	Z38	X39	Y39	Z39	

163	0.81	240.8667144775391	1489.280517578125	-407.4666137695312	195.7764129638672	1465.859008789062	-110.0633010864258	188.1573028564453	1022.437866210938	-415.2180786132812	197.0520477294922	1006.431030273438	-117.393928527832	239.5847015380859	968.989013671875	-403.4519653320312	-311.1895446777344	421.0699768066406	-316.200439453125	253.8141479492188	960.07568359375	-147.9005126953125	94.41798400878906	915.1611938476562	-420.2684936523438	120.3371887207031	898.3836059570312	-106.7587966918945	96.52941131591795	1057.028198242188	-267.6100769042969	152.70947265625	668.6968383789062	-437.6123962402344	-166.6836090087891	476.3385925292969	-411.2243957519531	72.17008972167969	688.1167602539062	-438.1087036132812	127.4081115722656	569.1103515625	-429.3530883789062	481.5995178222656	111.6654357910156	-133.7571411132812	-76.45453643798828	516.00927734375	-430.5473022460938	45.57515716552734	591.8040161132812	-418.2703247070312	315.81494140625	669.1285400390625	-100.8219528198242	-339.0372924804688	176.7074584960938	-364.0712890625	239.4369659423828	644.4329833984375	-97.13087463378906	342.0747680664062	575.6210327148438	-134.5755920410156	264.3182983398438	554.6057739257812	-127.4757461547852	57.52068328857422	529.0807495117188	-427.5884399414062	310.584716796875	523.0048828125	-129.9765625	-46.07426071166992	443.0238952636719	-432.8843688964844	-137.9510040283203	404.1676025390625	-420.9068908691406	361.1976318359375	409.8526306152344	-131.5428924560547	-366.69189453125	239.8637084960938	-407.64501953125	282.7315673828125	399.5433044433594	-118.6738357543945	-334.2994384765625	407.5738525390625	-288.464111328125	373.2578735351562	309.2183227539062	-143.3302917480469	294.7401123046875	302.069091796875	-132.5561370849609	-312.6680908203125	368.3057556152344	-382.8419189453125	361.5297546386719	116.1736145019531	-169.5072021484375	543.7843627929688	158.9882049560547	-186.7342987060547	310.5203857421875	80.2020263671875	-230.5577545166016	338.8238830566406	61.64177703857422	-258.8041687011719	320.680419921875	50.00265121459961	-206.9677124023438	-348.089599609375	421.7775268554688	-339.0429992675781
164	0.815	257.1037292480469	1484.746459960938	-406.5986633300781	211.9489135742188	1460.992309570312	-108.9319305419922	203.7419281005859	1018.185302734375	-415.0070495605469	210.8247680664062	1002.404479980469	-117.9054489135742	255.2632751464844	964.9105224609376	-402.9925231933594	-290.5964965820312	424.7073364257812	-315.5079650878906	268.46044921875	956.1583251953124	-146.8826599121094	110.6380920410156	909.750244140625	-420.2228698730469	135.3722839355469	894.099853515625	-106.528694152832	110.9855117797852	1052.38427734375	-267.9662475585938	172.0590515136719	663.6137084960938	-438.5567626953125	-145.5298919677734	476.4330444335938	-412.4203491210938	91.29727172851562	681.9746704101562	-438.8782958984375	148.3492889404297	563.5435180664062	-430.5405578613281	492.8694458007812	106.2505111694336	-135.3314361572266	-53.72921752929688	512.7772827148438	-431.9714965820312	66.1577377319336	584.7310791015625	-418.8496398925781	332.6871643066406	665.9502563476562	-101.6594390869141	-325.5653381347656	181.9508361816406	-364.3289794921875	256.4994506835938	641.4063110351562	-99.0928192138672	359.3824768066406	573.39208984375	-136.4463653564453	282.0216064453125	552.029052734375	-129.3608551025391	79.41363525390625	522.5474243164062	-429.1859436035156	327.877197265625	519.9622802734375	-130.9680938720703	-25.41140747070312	438.4967346191406	-432.7943420410156	-118.4049606323242	402.6665954589844	-420.936279296875	376.6447448730469	405.5013427734375	-132.2454681396484	-351.2882690429688	246.3404388427734	-407.6856689453125	297.5858459472656	397.0427856445312	-119.9169082641602	-314.0318603515625	412.218017578125	-287.8392944335938	387.1311645507812	304.2808227539062	-144.3364562988281	308.4614562988281	298.4320983886719	-133.5782928466797	-294.2357177734375	373.391357421875	-382.7942199707031	372.6600646972656	111.8938369750977	-170.1753234863281	554.9290161132812	152.9140014648438	-188.7650146484375	321.245361328125	76.26286315917969	-230.9895477294922	348.8247985839844	57.40232467651367	-259.4781188964844	330.8590698242188	46.4014892578125	-207.4796752929688	-327.2448425292969	427.9049987792969	-338.4136657714844
165	0.82	273.4162292480469	1480.238037109375	-405.6433410644531	228.167236328125	1455.910278320312	-107.9700698852539	219.4790191650391	1013.337524414062	-414.7673034667969	225.3926239013672	998.0721435546876	-117.5594482421875	271.2435302734375	960.3690185546876	-402.4272766113281	-269.1755676269531	428.1854248046875	-314.6355285644531	283.825927734375	952.2208251953124	-146.3755035400391	127.4117279052734	904.4398803710938	-420.5151062011719	150.1646728515625	889.4203491210938	-106.2914352416992	126.040641784668	1047.8876953125	-267.6955261230469	191.6463623046875	658.39794921875	-439.6783142089844	-123.5646667480469	475.389892578125	-413.2894897460938	110.850959777832	675.2645874023438	-439.6155700683594	169.535400390625	557.728759765625	-431.6434936523438	503.2486572265625	100.0219039916992	-137.7557983398438	-31.32039642333984	509.3147277832031	-433.0072937011719	87.09839630126953	578.016357421875	-419.8518981933594	349.3999633789062	663.369140625	-103.0327606201172	-311.0899353027344	187.6166534423828	-364.5782470703125	273.3470458984375	638.5902099609375	-101.2182464599609	376.9432067871094	571.243408203125	-138.5514678955078	299.6054077148438	549.3595581054688	-130.7351531982422	101.3947067260742	515.933837890625	-430.1887817382812	344.9775695800781	516.6321411132812	-132.3633270263672	-4.594865798950195	434.5173950195312	-433.941650390625	-98.59901428222656	401.1973571777344	-421.2629089355469	391.5928039550781	400.8515625	-133.3905487060547	-335.1840515136719	252.92822265625	-408.1168823242188	313.0786437988281	392.7665100097656	-120.1887664794922	-293.2108459472656	417.071533203125	-287.6480712890625	400.5692138671875	299.1746520996094	-145.5622406005859	321.8012390136719	294.6958618164062	-133.62451171875	-274.8798522949219	378.1835632324219	-382.2184448242188	383.8134155273438	107.1893844604492	-170.54345703125	565.7039184570312	145.620849609375	-191.8460388183594	330.3154907226562	75.17849731445312	-231.2705535888672	357.5185546875	55.02230072021484	-260.7298583984375	339.41650390625	46.34054565429688	-207.7581787109375	-305.6863403320312	433.9604797363281	-336.3605041503906
166	0.825	289.5802001953125	1475.511596679688	-404.8029174804688	244.5520629882812	1450.137573242188	-106.7327880859375	234.8943481445312	1008.578125	-414.5750427246094	239.7484130859375	993.4073486328124	-117.2557907104492	286.8695068359375	955.5899658203124	-401.8296203613281	-247.8979034423828	432.9740295410156	-314.3346557617188	298.5585632324219	947.8318481445312	-145.3580322265625	143.5968170166016	898.2990112304688	-420.6361999511719	165.0811920166016	884.4575805664062	-106.0193328857422	141.5323944091797	1043.01123046875	-267.5596313476562	211.5063934326172	652.4468994140625	-439.9098510742188	-101.2151184082031	474.3718872070312	-414.075439453125	129.9337615966797	668.3115234375	-439.8161926269531	191.4273986816406	551.874267578125	-433.0255126953125	512.3187255859375	93.17681121826172	-140.3196868896484	-8.104065895080566	505.9599914550781	-434.0364074707031	108.4608459472656	570.2290649414062	-420.66650390625	365.8257446289062	660.6354370117188	-104.5340347290039	-295.4355163574219	193.2546844482422	-365.1567687988281	290.4469299316406	635.3804931640625	-103.9688568115234	393.9913330078125	568.6835327148438	-140.6095123291016	317.2260131835938	546.5726928710938	-131.5400085449219	123.8627319335938	509.6865844726562	-432.2174682617188	362.2262573242188	513.3560791015625	-133.4366760253906	16.56326675415039	430.4004516601562	-434.7304382324219	-78.3646240234375	399.8041687011719	-421.5168762207031	406.7001342773438	395.8663330078125	-134.2995452880859	-318.5242614746094	259.3138732910156	-408.1310119628906	327.684326171875	388.8624267578125	-120.8851165771484	-271.5327758789062	421.9691772460938	-286.6318969726562	413.5841369628906	294.0608520507812	-146.3900756835938	335.0556945800781	290.80859375	-134.4880065917969	-255.1556854248047	382.8958435058594	-381.7123718261719	393.3223876953125	102.9696731567383	-171.81298828125	576.694091796875	136.4722595214844	-195.6814575195312	338.2681579589844	77.27959442138672	-232.1705780029297	363.3097229003906	53.79652786254883	-261.0110778808594	345.6646423339844	47.24786376953125	-208.0999450683594	-284.0750122070312	439.2245178222656	-336.2807922363281
